<?xml version="1.0" standalone="no"?>
<!DOCTYPE svg PUBLIC "-//W3C//DTD SVG 20010904//EN"
 "http://www.w3.org/TR/2001/REC-SVG-20010904/DTD/svg10.dtd">
<svg version="1.0" xmlns="http://www.w3.org/2000/svg"
 width="700.000000pt" height="700.000000pt" viewBox="0 0 700.000000 700.000000"
 preserveAspectRatio="xMidYMid meet">
<metadata>
Created by potrace 1.11, written by Peter Selinger 2001-2013
</metadata>
<g transform="translate(0.000000,700.000000) scale(0.100000,-0.100000)"
fill="#000000" stroke="none">
<path d="M3310 6804 c-709 -52 -1336 -295 -1875 -727 -189 -152 -450 -428
-597 -632 -532 -739 -733 -1672 -553 -2570 180 -896 740 -1687 1530 -2162 382
-230 835 -385 1295 -445 141 -18 639 -18 780 0 1135 146 2092 838 2579 1864
276 582 373 1265 270 1913 -80 505 -279 986 -577 1400 -147 204 -408 480 -597
632 -487 391 -1068 635 -1680 708 -129 15 -469 26 -575 19z m726 -1651 c113
-106 189 -196 181 -217 -3 -8 -37 -26 -76 -41 l-70 -28 -463 -531 c-255 -292
-526 -602 -602 -690 -77 -88 -133 -157 -125 -153 318 136 589 221 835 263 134
23 387 23 513 0 419 -75 741 -355 833 -721 31 -127 31 -360 0 -487 -32 -131
-75 -233 -140 -333 -167 -258 -448 -452 -869 -598 -133 -47 -436 -127 -478
-127 -18 0 -49 35 -144 163 l-122 162 133 6 c384 19 760 141 998 324 76 59
189 180 228 247 72 122 109 281 99 433 -29 437 -318 669 -862 692 -439 19
-885 -142 -1343 -483 -140 -105 -333 -296 -422 -416 -35 -49 -68 -88 -72 -88
-6 0 -314 189 -337 207 -3 2 5 10 17 19 59 41 276 229 413 357 391 366 922
992 1261 1488 98 144 182 278 177 283 -2 2 -264 -34 -583 -81 -318 -46 -580
-82 -583 -79 -6 5 -141 330 -139 333 1 1 37 -3 81 -9 106 -13 532 -4 705 17
275 31 608 101 760 158 36 14 71 25 78 26 8 0 61 -43 118 -96z"/>
</g>
</svg>
